<?xml version="1.0" encoding="UTF-8"?>
<svg width="277px" height="277px" viewBox="0 0 277 277" version="1.1" xmlns="http://www.w3.org/2000/svg" xmlns:xlink="http://www.w3.org/1999/xlink">
    <!-- Generator: Sketch 55.2 (78181) - https://sketchapp.com -->
    <title>Promo 4</title>
    <desc>Created with Sketch.</desc>
    <g id="Promo-4" stroke="none" stroke-width="1" fill="none" fill-rule="evenodd">
        <polygon id="Fill-1" stroke="#FFEAA2" points="138.439699 65.4939838 107.653752 6.18419047 105.611524 72.9577237 52.1095028 32.9510476 79.2467738 94.0059458 13.6954082 81.0850393 64.6322639 124.308571 -8.52651283e-14 141.1832 64.6322639 158.06179 13.6934273 201.27938 79.2467738 188.362435 52.107522 249.413372 105.609543 209.408676 107.653752 276.18419 138.439699 216.874397 169.225645 276.18419 171.269854 209.408676 224.773856 249.415352 197.632623 188.362435 263.18597 201.281361 212.249114 158.06179 276.881378 141.185181 276.881378 141.1832 212.249114 124.308571 263.18597 81.0870201 197.632623 94.0059458 224.775837 32.9530285 171.269854 72.9577237 169.225645 6.18419047"></polygon>
    </g>
</svg>