<?xml version="1.0" encoding="UTF-8"?>
<svg width="277px" height="277px" viewBox="0 0 277 277" version="1.1" xmlns="http://www.w3.org/2000/svg" xmlns:xlink="http://www.w3.org/1999/xlink">
    <!-- Generator: Sketch 55.2 (78181) - https://sketchapp.com -->
    <title>Promo 1</title>
    <desc>Created with Sketch.</desc>
    <g id="Promo-1" stroke="none" stroke-width="1" fill="none" fill-rule="evenodd">
        <g id="Group-5" transform="translate(0.000000, 0.000000)" stroke="#FFB330">
            <path d="M124.958919,229.165283 C125.159169,229.165283 125.361955,229.180492 125.56474,229.20584 C132.467049,230.113305 136.923259,246.860847 138.494846,277.03532 C140.066434,246.855777 144.520109,230.113305 151.422418,229.20584 C151.625203,229.180492 151.827989,229.165283 152.030774,229.165283 C158.669462,229.165283 165.409543,243.322241 171.074861,260.138223 C167.47035,242.209456 166.263777,226.158989 172.633774,223.520244 C179.077281,220.889103 191.297638,233.134808 207.738467,258.475383 C194.012428,231.555616 189.502987,214.830888 195.026356,210.590138 C200.511701,206.405153 213.796682,215.467127 227.510047,227.548069 C215.424035,213.829635 206.354457,200.529445 210.55465,195.059308 C214.7954,189.53087 231.525199,194.050451 258.432291,207.77649 C233.089181,191.325521 220.815593,179.095025 223.482221,172.664192 C226.126037,166.29166 242.173969,167.503303 260.095131,171.105279 C242.772186,165.267593 228.265423,158.28417 229.165283,151.447766 C230.075283,144.542922 246.81522,140.086712 276.987158,138.515125 C246.81522,136.943538 230.075283,132.487328 229.165283,125.587554 C228.265423,118.748615 242.772186,111.767726 260.095131,105.930041 C242.171434,109.534552 226.123502,110.741125 223.482221,104.371128 C220.815593,97.9377598 233.089181,85.7072633 258.432291,69.2562951 C231.50999,82.9874037 214.792866,87.4968448 210.55465,81.9760114 C206.354457,76.5033395 215.424035,63.2031499 227.510047,49.4847153 C213.791613,61.573262 200.506632,70.6327012 195.026356,66.445182 C189.502987,62.2044316 194.014963,45.4771682 207.738467,18.557402 C191.297638,43.8954418 179.100095,56.1690302 172.633774,53.512541 C166.263777,50.8737955 167.47035,34.8207937 171.074861,16.8970962 C165.237175,34.2251115 158.177708,48.7268048 151.422418,47.8269444 C144.520109,46.9194796 140.066434,30.1770073 138.494846,0 C136.923259,30.1770073 132.467049,46.9194796 125.56474,47.8269444 C125.361955,47.8548274 125.159169,47.8675015 124.958919,47.8675015 C118.317696,47.8700363 111.577615,33.7105434 105.909762,16.8970962 C109.516808,34.8207937 110.723381,50.8737955 104.353384,53.512541 C97.9174812,56.143682 85.6895196,43.8979766 69.2461558,18.557402 C82.9721948,45.4771682 87.4841707,62.2044316 81.9608025,66.445182 C76.4906654,70.6200271 63.1930106,61.573262 49.4771109,49.4821805 C61.5605879,63.2031499 70.6301664,76.5033395 66.4325079,81.9760114 C62.1892227,87.4993796 45.4594245,82.9797993 18.5548671,69.2562951 C43.8979766,85.7072633 56.1690302,97.9377598 53.5049365,104.371128 C50.8687259,110.746195 34.8106544,109.537087 16.8945614,105.930041 C34.217507,111.767726 48.7217351,118.748615 47.81934,125.587554 C46.9118751,132.487328 30.1694028,136.943538 -4.54747351e-13,138.515125 C30.1694028,140.086712 46.9118751,144.542922 47.81934,151.447766 C48.7217351,158.28417 34.217507,165.267593 16.8920266,171.107814 C34.8131892,167.495698 50.8661911,166.28659 53.5049365,172.664192 C56.1690302,179.095025 43.8979766,191.325521 18.5548671,207.77649 C45.4670289,194.050451 62.1892227,189.538475 66.4325079,195.059308 C70.6301664,200.529445 61.5605879,213.829635 49.4771109,227.548069 C63.1930106,215.459523 76.4729217,206.387409 81.9608025,210.590138 C87.4841707,214.830888 82.9721948,231.555616 69.2461558,258.475383 C85.6920544,233.137343 97.8870634,220.886568 104.353384,223.520244 C110.723381,226.158989 109.516808,242.211991 105.909762,260.138223 C111.57508,243.324776 118.317696,229.165283 124.958919,229.165283" id="Fill-1"></path>
        </g>
    </g>
</svg>